<svg width="25" height="24" viewBox="0 0 25 24" fill="none" xmlns="http://www.w3.org/2000/svg">
<path opacity="0.15" d="M0.399353 4C0.399353 1.79086 2.19021 0 4.39935 0H20.3994C22.6085 0 24.3994 1.79086 24.3994 4V20C24.3994 22.2091 22.6085 24 20.3994 24H4.39935C2.19021 24 0.399353 22.2091 0.399353 20V4Z" fill="#009A74"/>
<path d="M14.3994 18.6666V15.9999C14.4921 15.1648 14.2526 14.3267 13.7327 13.6666C15.7327 13.6666 17.7327 12.3333 17.7327 9.99992C17.786 9.16659 17.5527 8.34659 17.066 7.66659C17.2527 6.89992 17.2527 6.09992 17.066 5.33325C17.066 5.33325 16.3994 5.33325 15.066 6.33325C13.306 5.99992 11.4927 5.99992 9.73269 6.33325C8.39936 5.33325 7.73269 5.33325 7.73269 5.33325C7.53269 6.09992 7.53269 6.89992 7.73269 7.66659C7.24727 8.34384 7.01167 9.16844 7.06602 9.99992C7.06602 12.3333 9.06602 13.6666 11.066 13.6666C10.806 13.9933 10.6127 14.3666 10.4994 14.7666C10.386 15.1666 10.3527 15.5866 10.3994 15.9999V18.6666" stroke="#009A74" stroke-linecap="round" stroke-linejoin="round"/>
<path d="M10.3993 16.0001C7.39268 17.3334 7.06601 14.6667 5.73268 14.6667" stroke="#009A74" stroke-linecap="round" stroke-linejoin="round"/>
</svg>
