<svg width="25" height="24" viewBox="0 0 25 24" fill="none" xmlns="http://www.w3.org/2000/svg">
<path opacity="0.15" d="M0.399353 4C0.399353 1.79086 2.19021 0 4.39935 0H20.3994C22.6085 0 24.3994 1.79086 24.3994 4V20C24.3994 22.2091 22.6085 24 20.3994 24H4.39935C2.19021 24 0.399353 22.2091 0.399353 20V4Z" fill="#009A74"/>
<path d="M15.066 9.33325C16.1269 9.33325 17.1443 9.75468 17.8945 10.5048C18.6446 11.255 19.066 12.2724 19.066 13.3333V17.9999H16.3994V13.3333C16.3994 12.9796 16.2589 12.6405 16.0088 12.3904C15.7588 12.1404 15.4196 11.9999 15.066 11.9999C14.7124 11.9999 14.3733 12.1404 14.1232 12.3904C13.8732 12.6405 13.7327 12.9796 13.7327 13.3333V17.9999H11.066V13.3333C11.066 12.2724 11.4875 11.255 12.2376 10.5048C12.9877 9.75468 14.0052 9.33325 15.066 9.33325Z" fill="#009A74" stroke="#009A74" stroke-linecap="round" stroke-linejoin="round"/>
<path d="M8.39935 10H5.73268V18H8.39935V10Z" fill="#009A74" stroke="#009A74" stroke-linecap="round" stroke-linejoin="round"/>
<path d="M7.06601 7.99992C7.80239 7.99992 8.39935 7.40296 8.39935 6.66659C8.39935 5.93021 7.80239 5.33325 7.06601 5.33325C6.32963 5.33325 5.73268 5.93021 5.73268 6.66659C5.73268 7.40296 6.32963 7.99992 7.06601 7.99992Z" fill="#009A74" stroke="#009A74" stroke-linecap="round" stroke-linejoin="round"/>
</svg>
